<?xml version="1.0" encoding="UTF-8"?>
<!DOCTYPE svg PUBLIC "-//W3C//DTD SVG 1.1//EN" "http://www.w3.org/Graphics/SVG/1.1/DTD/svg11.dtd">
<svg xmlns="http://www.w3.org/2000/svg" version="1.1" width="147px" height="55px" style="shape-rendering:geometricPrecision; text-rendering:geometricPrecision; image-rendering:optimizeQuality; fill-rule:evenodd; clip-rule:evenodd" xmlns:xlink="http://www.w3.org/1999/xlink">
<g><path style="opacity:0.114" fill="#26171b" d="M 24.5,19.5 C 24.5,19.1667 24.5,18.8333 24.5,18.5C 24.9175,17.7784 25.5842,17.2784 26.5,17C 25.0577,16.6232 24.0577,15.7899 23.5,14.5C 23.4346,14.0618 23.6012,13.7284 24,13.5C 29.7736,15.375 29.9403,17.375 24.5,19.5 Z"/></g>
<g><path style="opacity:0.114" fill="#22182a" d="M 102.5,16.5 C 104.455,15.0698 106.121,15.4031 107.5,17.5C 107.5,17.8333 107.5,18.1667 107.5,18.5C 107.5,19.5 107.5,20.5 107.5,21.5C 107.5,22.5 107.5,23.5 107.5,24.5C 107.328,25.4916 107.662,26.1583 108.5,26.5C 107.167,28.1667 107.167,29.8333 108.5,31.5C 108.167,31.5 107.833,31.5 107.5,31.5C 106.833,29.1667 106.167,26.8333 105.5,24.5C 105.5,23.5 105.5,22.5 105.5,21.5C 106.686,20.0387 106.686,18.7054 105.5,17.5C 104.791,16.596 103.791,16.2627 102.5,16.5 Z"/></g>
<g><path style="opacity:1" fill="#e07a8d" d="M 19.5,15.5 C 20.5676,14.5655 21.901,14.2322 23.5,14.5C 24.0577,15.7899 25.0577,16.6232 26.5,17C 25.5842,17.2784 24.9175,17.7784 24.5,18.5C 23.391,18.5569 22.391,18.8902 21.5,19.5C 21.8432,17.5168 21.1765,16.1834 19.5,15.5 Z"/></g>
<g><path style="opacity:0.145" fill="#1e2029" d="M 117.5,18.5 C 117.5,17.8333 117.167,17.5 116.5,17.5C 115.791,16.596 114.791,16.2627 113.5,16.5C 111.027,16.0882 109.694,17.0882 109.5,19.5C 109.672,20.4916 109.338,21.1583 108.5,21.5C 108.737,20.209 108.404,19.209 107.5,18.5C 107.5,18.1667 107.5,17.8333 107.5,17.5C 110.518,15.537 113.851,15.037 117.5,16C 118.774,16.9772 118.774,17.8106 117.5,18.5 Z"/></g>
<g><path style="opacity:1" fill="#efe7e6" d="M 113.5,16.5 C 114.791,16.2627 115.791,16.596 116.5,17.5C 116.179,19.0481 115.179,19.7148 113.5,19.5C 113.167,19.5 112.833,19.5 112.5,19.5C 113.11,18.609 113.443,17.609 113.5,16.5 Z"/></g>
<g><path style="opacity:1" fill="#e17b83" d="M 19.5,15.5 C 21.1765,16.1834 21.8432,17.5168 21.5,19.5C 21.4802,21.143 22.1468,22.4763 23.5,23.5C 22.675,24.3857 21.675,24.719 20.5,24.5C 20.8515,21.9272 20.3515,19.5938 19,17.5C 18.5012,21.4862 18.3345,25.4862 18.5,29.5C 18.1667,29.5 17.8333,29.5 17.5,29.5C 17.5,28.8333 17.5,28.1667 17.5,27.5C 17.5,26.1667 17.5,24.8333 17.5,23.5C 17.3367,21.1432 17.5034,18.8098 18,16.5C 18.3826,15.944 18.8826,15.6107 19.5,15.5 Z"/></g>
<g><path style="opacity:1" fill="#dddcde" d="M 49.5,18.5 C 49.5,17.8333 49.8333,17.5 50.5,17.5C 53.8774,17.0679 56.8774,17.7345 59.5,19.5C 57.5168,19.1568 56.1834,19.8235 55.5,21.5C 54.8333,21.5 54.1667,21.5 53.5,21.5C 53.5,20.5 53.5,19.5 53.5,18.5C 52.1667,18.5 50.8333,18.5 49.5,18.5 Z"/></g>
<g><path style="opacity:0.106" fill="#2e2522" d="M 50.5,17.5 C 55.8754,15.3827 60.2087,16.7161 63.5,21.5C 63.573,23.0269 62.9063,24.0269 61.5,24.5C 59.901,24.7678 58.5676,24.4345 57.5,23.5C 58.8333,23.5 60.1667,23.5 61.5,23.5C 61.7709,21.6203 61.1042,20.287 59.5,19.5C 56.8774,17.7345 53.8774,17.0679 50.5,17.5 Z"/></g>
<g><path style="opacity:1" fill="#e9e8dd" d="M 102.5,16.5 C 103.791,16.2627 104.791,16.596 105.5,17.5C 104.797,20.8606 103.463,21.1939 101.5,18.5C 101.863,17.8165 102.196,17.1499 102.5,16.5 Z"/></g>
<g><path style="opacity:1" fill="#dfe9ea" d="M 113.5,16.5 C 113.443,17.609 113.11,18.609 112.5,19.5C 111.833,19.5 111.5,19.8333 111.5,20.5C 111.167,20.5 110.833,20.5 110.5,20.5C 110.5,19.8333 110.167,19.5 109.5,19.5C 109.694,17.0882 111.027,16.0882 113.5,16.5 Z"/></g>
<g><path style="opacity:1" fill="#f07579" d="M 20.5,24.5 C 20.5,25.1667 20.8333,25.5 21.5,25.5C 21.4729,27.1993 20.8062,28.5326 19.5,29.5C 19.1667,29.5 18.8333,29.5 18.5,29.5C 18.3345,25.4862 18.5012,21.4862 19,17.5C 20.3515,19.5938 20.8515,21.9272 20.5,24.5 Z"/></g>
<g><path style="opacity:1" fill="#fcfdf9" d="M 93.5,18.5 C 93.8333,18.5 94.1667,18.5 94.5,18.5C 95.1667,18.5 95.8333,18.5 96.5,18.5C 96.552,20.9029 96.2186,23.2362 95.5,25.5C 94.596,26.209 94.2627,27.209 94.5,28.5C 94.1667,28.5 93.8333,28.5 93.5,28.5C 94.3678,25.0645 94.3678,21.7312 93.5,18.5 Z"/></g>
<g><path style="opacity:0.137" fill="#262737" d="M 102.5,16.5 C 102.196,17.1499 101.863,17.8165 101.5,18.5C 103.463,21.1939 104.797,20.8606 105.5,17.5C 106.686,18.7054 106.686,20.0387 105.5,21.5C 104.833,21.5 104.167,21.5 103.5,21.5C 101.612,23.9878 100.945,26.9878 101.5,30.5C 101.5,31.8333 101.5,33.1667 101.5,34.5C 100.767,32.7056 99.7671,31.0389 98.5,29.5C 99.8333,28.5 99.8333,27.5 98.5,26.5C 98.8333,25.8333 99.1667,25.1667 99.5,24.5C 98.9708,22.2156 97.9708,20.2156 96.5,18.5C 95.8333,18.5 95.1667,18.5 94.5,18.5C 96.4888,17.1134 98.3221,17.4468 100,19.5C 100.236,17.8807 101.069,16.8807 102.5,16.5 Z"/></g>
<g><path style="opacity:0.145" fill="#3f332c" d="M 116.5,17.5 C 117.167,17.5 117.5,17.8333 117.5,18.5C 117.5,18.8333 117.5,19.1667 117.5,19.5C 117.5,20.1667 117.5,20.8333 117.5,21.5C 117.5,22.1667 117.5,22.8333 117.5,23.5C 116.833,23.8333 116.167,24.1667 115.5,24.5C 115.169,22.6776 114.502,21.0109 113.5,19.5C 115.179,19.7148 116.179,19.0481 116.5,17.5 Z"/></g>
<g><path style="opacity:0.161" fill="#2d131c" d="M 32.5,20.5 C 31.6618,20.8417 31.3284,21.5084 31.5,22.5C 30.209,22.2627 29.209,22.596 28.5,23.5C 27.8333,23.5 27.1667,23.5 26.5,23.5C 27.8044,20.4306 29.8044,19.4306 32.5,20.5 Z"/></g>
<g><path style="opacity:0.129" fill="#221819" d="M 117.5,19.5 C 119.898,19.2594 121.898,19.9261 123.5,21.5C 123.5,23.8333 123.5,26.1667 123.5,28.5C 122.717,26.6568 122.05,24.6568 121.5,22.5C 121.043,21.7025 120.376,21.3691 119.5,21.5C 118.833,21.5 118.167,21.5 117.5,21.5C 117.5,20.8333 117.5,20.1667 117.5,19.5 Z"/></g>
<g><path style="opacity:1" fill="#fbf9f4" d="M 49.5,18.5 C 50.8333,18.5 52.1667,18.5 53.5,18.5C 53.5,19.5 53.5,20.5 53.5,21.5C 52.5084,21.3284 51.8417,21.6618 51.5,22.5C 50.8333,22.5 50.5,22.8333 50.5,23.5C 49.5489,24.9187 49.2155,26.5853 49.5,28.5C 48.5318,26.3926 48.1984,24.0593 48.5,21.5C 48.5569,20.391 48.8902,19.391 49.5,18.5 Z"/></g>
<g><path style="opacity:0.114" fill="#191d21" d="M 53.5,21.5 C 54.1667,21.5 54.8333,21.5 55.5,21.5C 56.5,21.8333 57.1667,22.5 57.5,23.5C 58.5676,24.4345 59.901,24.7678 61.5,24.5C 61.5,24.8333 61.5,25.1667 61.5,25.5C 58.3484,26.0414 55.8484,25.0414 54,22.5C 53.1482,23.5707 52.3149,24.5707 51.5,25.5C 51.5,24.5 51.5,23.5 51.5,22.5C 51.8417,21.6618 52.5084,21.3284 53.5,21.5 Z"/></g>
<g><path style="opacity:1" fill="#f4f5f0" d="M 59.5,19.5 C 61.1042,20.287 61.7709,21.6203 61.5,23.5C 60.1667,23.5 58.8333,23.5 57.5,23.5C 57.1667,22.5 56.5,21.8333 55.5,21.5C 56.1834,19.8235 57.5168,19.1568 59.5,19.5 Z"/></g>
<g><path style="opacity:0.994" fill="#e4ebed" d="M 71.5,21.5 C 71.5,22.8333 71.5,24.1667 71.5,25.5C 71.1788,27.0481 70.1788,27.7148 68.5,27.5C 67.8333,27.5 67.1667,27.5 66.5,27.5C 67.209,26.596 68.209,26.2627 69.5,26.5C 70.8333,25.8333 70.8333,25.1667 69.5,24.5C 67.1401,26.193 65.6401,25.8597 65,23.5C 66.7889,21.771 68.9556,21.1043 71.5,21.5 Z"/></g>
<g><path style="opacity:1" fill="#d6cec3" d="M 83.5,21.5 C 84.791,21.2627 85.791,21.596 86.5,22.5C 85.5,22.8333 84.8333,23.5 84.5,24.5C 83.6618,24.8417 83.3284,25.5084 83.5,26.5C 82.8333,26.5 82.1667,26.5 81.5,26.5C 81.8308,24.6776 82.4975,23.0109 83.5,21.5 Z"/></g>
<g><path style="opacity:0.133" fill="#1f1f26" d="M 92.5,18.5 C 91.8333,20.5 91.1667,22.5 90.5,24.5C 90.5,25.1667 90.1667,25.5 89.5,25.5C 89.5,23.5 88.5,22.5 86.5,22.5C 85.791,21.596 84.791,21.2627 83.5,21.5C 82.8333,21.5 82.1667,21.5 81.5,21.5C 85.2917,21.0074 88.9583,20.0074 92.5,18.5 Z"/></g>
<g><path style="opacity:1" fill="#c8d9e7" d="M 92.5,18.5 C 92.8333,18.5 93.1667,18.5 93.5,18.5C 94.3678,21.7312 94.3678,25.0645 93.5,28.5C 93.5,29.8333 93.5,31.1667 93.5,32.5C 92.8333,29.8333 92.1667,27.1667 91.5,24.5C 91.1667,24.5 90.8333,24.5 90.5,24.5C 91.1667,22.5 91.8333,20.5 92.5,18.5 Z"/></g>
<g><path style="opacity:1" fill="#d2c4b1" d="M 96.5,18.5 C 97.9708,20.2156 98.9708,22.2156 99.5,24.5C 97.6921,25.9179 97.0254,27.9179 97.5,30.5C 96.8333,28.8333 96.1667,27.1667 95.5,25.5C 96.2186,23.2362 96.552,20.9029 96.5,18.5 Z"/></g>
<g><path style="opacity:0.999" fill="#f7f0e1" d="M 112.5,19.5 C 112.833,19.5 113.167,19.5 113.5,19.5C 114.502,21.0109 115.169,22.6776 115.5,24.5C 113.881,27.5479 112.881,30.8812 112.5,34.5C 111.655,29.7761 111.322,25.1094 111.5,20.5C 111.5,19.8333 111.833,19.5 112.5,19.5 Z"/></g>
<g><path style="opacity:0.482" fill="#361518" d="M 24.5,18.5 C 24.5,18.8333 24.5,19.1667 24.5,19.5C 24.2805,22.6224 24.2805,25.9558 24.5,29.5C 24.1667,29.5 23.8333,29.5 23.5,29.5C 23.8432,27.5168 23.1765,26.1834 21.5,25.5C 20.8333,25.5 20.5,25.1667 20.5,24.5C 21.675,24.719 22.675,24.3857 23.5,23.5C 22.1468,22.4763 21.4802,21.143 21.5,19.5C 22.391,18.8902 23.391,18.5569 24.5,18.5 Z"/></g>
<g><path style="opacity:0.965" fill="#b97e69" d="M 32.5,20.5 C 34.8816,21.3507 36.8816,22.684 38.5,24.5C 36.8828,23.962 35.2161,23.6287 33.5,23.5C 33.1667,23.5 32.8333,23.5 32.5,23.5C 32.5,22.8333 32.1667,22.5 31.5,22.5C 31.3284,21.5084 31.6618,20.8417 32.5,20.5 Z"/></g>
<g><path style="opacity:1" fill="#9eb2c3" d="M 49.5,18.5 C 48.8902,19.391 48.5569,20.391 48.5,21.5C 47.5206,24.6248 47.1872,27.9581 47.5,31.5C 47.1667,31.5 46.8333,31.5 46.5,31.5C 43.3168,26.067 44.3168,21.7337 49.5,18.5 Z"/></g>
<g><path style="opacity:0.063" fill="#352928" d="M 72.5,21.5 C 74.8333,22.8333 77.1667,22.8333 79.5,21.5C 79.1667,22.5 78.5,23.1667 77.5,23.5C 76.5655,24.5676 76.2322,25.901 76.5,27.5C 76.8016,30.0593 76.4682,32.3926 75.5,34.5C 75.5,32.1667 75.5,29.8333 75.5,27.5C 75.9717,24.6421 74.9717,22.6421 72.5,21.5 Z"/></g>
<g><path style="opacity:1" fill="#f7f6f2" d="M 86.5,22.5 C 88.5,22.5 89.5,23.5 89.5,25.5C 87.7085,25.634 86.0418,25.3007 84.5,24.5C 84.8333,23.5 85.5,22.8333 86.5,22.5 Z"/></g>
<g><path style="opacity:1" fill="#f9f3e7" d="M 127.5,21.5 C 128.5,21.5 129.5,21.5 130.5,21.5C 129.637,23.4214 128.971,25.4214 128.5,27.5C 128.5,28.1667 128.167,28.5 127.5,28.5C 127.5,26.1667 127.5,23.8333 127.5,21.5 Z"/></g>
<g><path style="opacity:1" fill="#e9e4d3" d="M 119.5,21.5 C 120.376,21.3691 121.043,21.7025 121.5,22.5C 122.05,24.6568 122.717,26.6568 123.5,28.5C 123.833,28.5 124.167,28.5 124.5,28.5C 124.631,29.3764 124.298,30.0431 123.5,30.5C 122.482,29.8075 121.482,29.1408 120.5,28.5C 120.326,26.139 119.993,23.8056 119.5,21.5 Z"/></g>
<g><path style="opacity:0.155" fill="#131c2e" d="M 130.5,21.5 C 129.5,21.5 128.5,21.5 127.5,21.5C 127.167,21.5 126.833,21.5 126.5,21.5C 125.076,23.5145 124.41,25.8478 124.5,28.5C 124.167,28.5 123.833,28.5 123.5,28.5C 123.5,26.1667 123.5,23.8333 123.5,21.5C 125.941,20.2437 128.274,20.2437 130.5,21.5 Z"/></g>
<g><path style="opacity:0.935" fill="#da9083" d="M 31.5,22.5 C 32.1667,22.5 32.5,22.8333 32.5,23.5C 32.5,24.8333 32.5,26.1667 32.5,27.5C 31.609,26.8902 30.609,26.5569 29.5,26.5C 28.9907,25.6587 29.6573,25.1587 31.5,25C 30.2625,24.7679 29.2625,24.2679 28.5,23.5C 29.209,22.596 30.209,22.2627 31.5,22.5 Z"/></g>
<g><path style="opacity:0.969" fill="#e8a27b" d="M 33.5,23.5 C 35.2161,23.6287 36.8828,23.962 38.5,24.5C 41.0479,26.0378 41.0479,27.7044 38.5,29.5C 38.1667,29.5 37.8333,29.5 37.5,29.5C 37.5,28.1667 37.5,26.8333 37.5,25.5C 36.5,25.5 35.5,25.5 34.5,25.5C 34.1667,24.8333 33.8333,24.1667 33.5,23.5 Z"/></g>
<g><path style="opacity:0.082" fill="#1f222d" d="M 71.5,21.5 C 68.9556,21.1043 66.7889,21.771 65,23.5C 65.6401,25.8597 67.1401,26.193 69.5,24.5C 69.5,25.1667 69.5,25.8333 69.5,26.5C 68.209,26.2627 67.209,26.596 66.5,27.5C 66.1667,27.5 65.8333,27.5 65.5,27.5C 63.8958,28.287 63.2291,29.6203 63.5,31.5C 62.8333,30.5 62.1667,29.5 61.5,28.5C 60.5,28.5 59.5,28.5 58.5,28.5C 58.5,27.8333 58.5,27.1667 58.5,26.5C 59.8221,26.33 60.9887,26.6634 62,27.5C 62.6917,26.5632 62.525,25.8966 61.5,25.5C 61.5,25.1667 61.5,24.8333 61.5,24.5C 62.9063,24.0269 63.573,23.0269 63.5,21.5C 66.272,20.2329 68.9387,20.2329 71.5,21.5 Z"/></g>
<g><path style="opacity:1" fill="#bfd3dd" d="M 79.5,21.5 C 80.1667,21.5 80.8333,21.5 81.5,21.5C 79.3956,23.5832 79.0623,25.9165 80.5,28.5C 80.1667,28.5 79.8333,28.5 79.5,28.5C 78.8333,28.1667 78.1667,27.8333 77.5,27.5C 77.5,26.1667 77.5,24.8333 77.5,23.5C 78.5,23.1667 79.1667,22.5 79.5,21.5 Z"/></g>
<g><path style="opacity:1" fill="#e5f4f8" d="M 117.5,21.5 C 118.167,21.5 118.833,21.5 119.5,21.5C 119.993,23.8056 120.326,26.139 120.5,28.5C 120.5,29.1667 120.5,29.8333 120.5,30.5C 120.167,30.5 119.833,30.5 119.5,30.5C 119.125,28.3024 118.458,26.3024 117.5,24.5C 117.5,24.1667 117.5,23.8333 117.5,23.5C 117.5,22.8333 117.5,22.1667 117.5,21.5 Z"/></g>
<g><path style="opacity:0.153" fill="#341315" d="M 26.5,23.5 C 27.1667,23.5 27.8333,23.5 28.5,23.5C 29.2625,24.2679 30.2625,24.7679 31.5,25C 29.6573,25.1587 28.9907,25.6587 29.5,26.5C 29.5858,27.4959 29.2524,28.3292 28.5,29C 30.1193,29.2355 31.1193,30.0689 31.5,31.5C 30.5,31.8333 29.8333,32.5 29.5,33.5C 27.9582,34.3007 26.2915,34.634 24.5,34.5C 24.5,34.1667 24.5,33.8333 24.5,33.5C 25.791,33.7373 26.791,33.404 27.5,32.5C 28.0431,32.44 28.3764,32.1067 28.5,31.5C 27.8307,28.8035 27.1641,26.1368 26.5,23.5 Z"/></g>
<g><path style="opacity:1" fill="#fea17d" d="M 32.5,23.5 C 32.8333,23.5 33.1667,23.5 33.5,23.5C 33.8333,24.1667 34.1667,24.8333 34.5,25.5C 34.8333,26.8333 35.1667,28.1667 35.5,29.5C 33.9731,29.573 32.9731,28.9063 32.5,27.5C 32.5,26.1667 32.5,24.8333 32.5,23.5 Z"/></g>
<g><path style="opacity:1" fill="#fba474" d="M 34.5,25.5 C 35.5,25.5 36.5,25.5 37.5,25.5C 37.5,26.8333 37.5,28.1667 37.5,29.5C 36.8333,29.5 36.1667,29.5 35.5,29.5C 35.1667,28.1667 34.8333,26.8333 34.5,25.5 Z"/></g>
<g><path style="opacity:1" fill="#f9f4ed" d="M 71.5,21.5 C 71.8333,21.5 72.1667,21.5 72.5,21.5C 74.9717,22.6421 75.9717,24.6421 75.5,27.5C 74.8333,27.1667 74.1667,26.8333 73.5,26.5C 72.8333,26.1667 72.1667,25.8333 71.5,25.5C 71.5,24.1667 71.5,22.8333 71.5,21.5 Z"/></g>
<g><path style="opacity:1" fill="#fbfdfc" d="M 81.5,21.5 C 82.1667,21.5 82.8333,21.5 83.5,21.5C 82.4975,23.0109 81.8308,24.6776 81.5,26.5C 83.0311,27.9245 82.6977,28.5912 80.5,28.5C 79.0623,25.9165 79.3956,23.5832 81.5,21.5 Z"/></g>
<g><path style="opacity:0.129" fill="#292222" d="M 84.5,24.5 C 86.0418,25.3007 87.7085,25.634 89.5,25.5C 90.1667,25.5 90.5,25.1667 90.5,24.5C 90.8333,24.5 91.1667,24.5 91.5,24.5C 91.5,27.5 91.5,30.5 91.5,33.5C 91.1667,33.5 90.8333,33.5 90.5,33.5C 89.8333,33.5 89.1667,33.5 88.5,33.5C 90.0622,31.0993 89.7288,29.0993 87.5,27.5C 86.791,26.596 85.791,26.2627 84.5,26.5C 84.5,25.8333 84.5,25.1667 84.5,24.5 Z"/></g>
<g><path style="opacity:0.188" fill="#3a2d25" d="M 130.5,21.5 C 131.239,21.369 131.906,21.5357 132.5,22C 131.756,23.8148 131.089,25.6481 130.5,27.5C 129.833,27.5 129.167,27.5 128.5,27.5C 128.971,25.4214 129.637,23.4214 130.5,21.5 Z"/></g>
<g><path style="opacity:0.055" fill="#1e0a0a" d="M 17.5,23.5 C 17.5,24.8333 17.5,26.1667 17.5,27.5C 16.4138,27.38 15.7472,26.7133 15.5,25.5C 15.7472,24.2867 16.4138,23.62 17.5,23.5 Z"/></g>
<g><path style="opacity:0.255" fill="#342115" d="M 51.5,22.5 C 51.5,23.5 51.5,24.5 51.5,25.5C 51.9321,26.7095 52.5987,27.7095 53.5,28.5C 53.5,29.1667 53.5,29.8333 53.5,30.5C 53.1667,30.5 52.8333,30.5 52.5,30.5C 51.8826,30.3893 51.3826,30.056 51,29.5C 50.5045,27.5273 50.3379,25.5273 50.5,23.5C 50.5,22.8333 50.8333,22.5 51.5,22.5 Z"/></g>
<g><path style="opacity:1" fill="#f7fcfe" d="M 71.5,25.5 C 72.1667,25.8333 72.8333,26.1667 73.5,26.5C 73.5,29.1667 73.5,31.8333 73.5,34.5C 73.1667,34.5 72.8333,34.5 72.5,34.5C 72.2178,33.2223 71.5511,32.2223 70.5,31.5C 71.404,30.791 71.7373,29.791 71.5,28.5C 70.5,28.5 69.5,28.5 68.5,28.5C 68.5,28.1667 68.5,27.8333 68.5,27.5C 70.1788,27.7148 71.1788,27.0481 71.5,25.5 Z"/></g>
<g><path style="opacity:1" fill="#dcdad5" d="M 81.5,26.5 C 82.1667,26.5 82.8333,26.5 83.5,26.5C 83.8333,26.5 84.1667,26.5 84.5,26.5C 85.791,26.2627 86.791,26.596 87.5,27.5C 85.5168,27.1568 84.1834,27.8235 83.5,29.5C 82.209,29.7373 81.209,29.404 80.5,28.5C 82.6977,28.5912 83.0311,27.9245 81.5,26.5 Z"/></g>
<g><path style="opacity:1" fill="#fcf9e6" d="M 103.5,21.5 C 104.167,21.5 104.833,21.5 105.5,21.5C 105.5,22.5 105.5,23.5 105.5,24.5C 105.5,27.8333 105.5,31.1667 105.5,34.5C 105.167,34.5 104.833,34.5 104.5,34.5C 104.167,33.1667 103.833,31.8333 103.5,30.5C 103.5,27.5 103.5,24.5 103.5,21.5 Z"/></g>
<g><path style="opacity:0.155" fill="#26181a" d="M 117.5,23.5 C 117.5,23.8333 117.5,24.1667 117.5,24.5C 117.737,25.791 117.404,26.791 116.5,27.5C 116.489,24.9991 115.822,24.8324 114.5,27C 117.323,34.0472 115.323,36.5472 108.5,34.5C 108.833,34.5 109.167,34.5 109.5,34.5C 109.833,34.5 110.167,34.5 110.5,34.5C 111.167,34.5 111.833,34.5 112.5,34.5C 112.881,30.8812 113.881,27.5479 115.5,24.5C 116.167,24.1667 116.833,23.8333 117.5,23.5 Z"/></g>
<g><path style="opacity:0.169" fill="#1a273a" d="M 58.5,26.5 C 58.5,27.1667 58.5,27.8333 58.5,28.5C 57.8333,28.5 57.5,28.8333 57.5,29.5C 56.2921,30.2341 54.9587,30.5674 53.5,30.5C 53.5,29.8333 53.5,29.1667 53.5,28.5C 55.2838,28.1075 56.9505,27.4408 58.5,26.5 Z"/></g>
<g><path style="opacity:0.106" fill="#1f161a" d="M 76.5,27.5 C 76.8333,27.5 77.1667,27.5 77.5,27.5C 78.1667,27.8333 78.8333,28.1667 79.5,28.5C 78.8333,29.1667 78.1667,29.8333 77.5,30.5C 77.5,31.1667 77.5,31.8333 77.5,32.5C 77.5,33.1667 77.5,33.8333 77.5,34.5C 74.0381,35.4816 70.3714,35.815 66.5,35.5C 66.5,35.1667 66.5,34.8333 66.5,34.5C 68.7033,34.0651 70.7033,34.0651 72.5,34.5C 72.8333,34.5 73.1667,34.5 73.5,34.5C 74.1667,34.5 74.8333,34.5 75.5,34.5C 76.4682,32.3926 76.8016,30.0593 76.5,27.5 Z"/></g>
<g><path style="opacity:1" fill="#fafbfb" d="M 87.5,27.5 C 87.33,28.8221 87.6634,29.9887 88.5,31C 87.552,31.4828 86.552,31.6495 85.5,31.5C 85.5,30.1667 84.8333,29.5 83.5,29.5C 84.1834,27.8235 85.5168,27.1568 87.5,27.5 Z"/></g>
<g><path style="opacity:1" fill="#f4efe4" d="M 126.5,21.5 C 126.833,21.5 127.167,21.5 127.5,21.5C 127.5,23.8333 127.5,26.1667 127.5,28.5C 127.5,29.5 127.5,30.5 127.5,31.5C 126.323,33.6794 125.323,36.0128 124.5,38.5C 124.5,39.1667 124.167,39.5 123.5,39.5C 123.5,39.1667 123.5,38.8333 123.5,38.5C 125.537,33.0439 126.537,27.3773 126.5,21.5 Z"/></g>
<g><path style="opacity:0.961" fill="#d07878" d="M 21.5,25.5 C 23.1765,26.1834 23.8432,27.5168 23.5,29.5C 22.1667,29.5 21.5,30.1667 21.5,31.5C 20.1667,31.5 19.5,30.8333 19.5,29.5C 20.8062,28.5326 21.4729,27.1993 21.5,25.5 Z"/></g>
<g><path style="opacity:1" fill="#f7fdfe" d="M 48.5,21.5 C 48.1984,24.0593 48.5318,26.3926 49.5,28.5C 49.5,29.5 49.5,30.5 49.5,31.5C 49.0623,32.5063 48.3957,32.5063 47.5,31.5C 47.1872,27.9581 47.5206,24.6248 48.5,21.5 Z"/></g>
<g><path style="opacity:1" fill="#d5eaf2" d="M 65.5,27.5 C 65.5,29.5 65.5,31.5 65.5,33.5C 64.5,33.1667 63.8333,32.5 63.5,31.5C 63.2291,29.6203 63.8958,28.287 65.5,27.5 Z"/></g>
<g><path style="opacity:1" fill="#faf3e9" d="M 95.5,25.5 C 96.1667,27.1667 96.8333,28.8333 97.5,30.5C 98.2778,31.1556 98.9444,31.9889 99.5,33C 99.1639,34.0299 98.4972,34.5299 97.5,34.5C 95.6833,32.9878 94.6833,30.9878 94.5,28.5C 94.2627,27.209 94.596,26.209 95.5,25.5 Z"/></g>
<g><path style="opacity:0.165" fill="#412c29" d="M 105.5,24.5 C 106.167,26.8333 106.833,29.1667 107.5,31.5C 107.328,32.4916 107.662,33.1583 108.5,33.5C 108.5,33.8333 108.5,34.1667 108.5,34.5C 107.833,34.5 107.167,34.5 106.5,34.5C 106.167,34.5 105.833,34.5 105.5,34.5C 105.5,31.1667 105.5,27.8333 105.5,24.5 Z"/></g>
<g><path style="opacity:0.059" fill="#323539" d="M 79.5,28.5 C 79.8333,28.5 80.1667,28.5 80.5,28.5C 81.209,29.404 82.209,29.7373 83.5,29.5C 84.8333,29.5 85.5,30.1667 85.5,31.5C 85.1667,31.5 84.8333,31.5 84.5,31.5C 84.1667,30.1667 83.8333,30.1667 83.5,31.5C 81.6208,30.6586 79.6208,30.3253 77.5,30.5C 78.1667,29.8333 78.8333,29.1667 79.5,28.5 Z"/></g>
<g><path style="opacity:1" fill="#eef8fa" d="M 93.5,28.5 C 93.8333,28.5 94.1667,28.5 94.5,28.5C 94.6833,30.9878 95.6833,32.9878 97.5,34.5C 97.1667,34.5 96.8333,34.5 96.5,34.5C 94.9731,34.573 93.9731,33.9063 93.5,32.5C 93.5,31.1667 93.5,29.8333 93.5,28.5 Z"/></g>
<g><path style="opacity:1" fill="#f3fcfb" d="M 103.5,21.5 C 103.5,24.5 103.5,27.5 103.5,30.5C 102.833,30.5 102.167,30.5 101.5,30.5C 100.945,26.9878 101.612,23.9878 103.5,21.5 Z"/></g>
<g><path style="opacity:0.999" fill="#f4fdff" d="M 109.5,19.5 C 110.167,19.5 110.5,19.8333 110.5,20.5C 110.5,25.1667 110.5,29.8333 110.5,34.5C 110.167,34.5 109.833,34.5 109.5,34.5C 109.813,30.9581 109.479,27.6248 108.5,24.5C 108.167,24.5 107.833,24.5 107.5,24.5C 107.5,23.5 107.5,22.5 107.5,21.5C 107.833,21.5 108.167,21.5 108.5,21.5C 109.338,21.1583 109.672,20.4916 109.5,19.5 Z"/></g>
<g><path style="opacity:0.137" fill="#162335" d="M 117.5,24.5 C 118.458,26.3024 119.125,28.3024 119.5,30.5C 119.5,31.5 119.5,32.5 119.5,33.5C 118.13,31.7496 117.13,29.7496 116.5,27.5C 117.404,26.791 117.737,25.791 117.5,24.5 Z"/></g>
<g><path style="opacity:0.161" fill="#271514" d="M 23.5,29.5 C 23.8333,29.5 24.1667,29.5 24.5,29.5C 23.4331,31.8795 24.4331,32.8795 27.5,32.5C 26.791,33.404 25.791,33.7373 24.5,33.5C 24.1667,33.5 23.8333,33.5 23.5,33.5C 22.5,33.1667 21.8333,32.5 21.5,31.5C 21.5,30.1667 22.1667,29.5 23.5,29.5 Z"/></g>
<g><path style="opacity:0.906" fill="#d4695f" d="M 29.5,26.5 C 30.609,26.5569 31.609,26.8902 32.5,27.5C 32.9731,28.9063 33.9731,29.573 35.5,29.5C 36.1667,29.5 36.8333,29.5 37.5,29.5C 37.8333,29.5 38.1667,29.5 38.5,29.5C 37.4863,30.6737 36.153,31.3404 34.5,31.5C 33.5,31.5 32.5,31.5 31.5,31.5C 31.1193,30.0689 30.1193,29.2355 28.5,29C 29.2524,28.3292 29.5858,27.4959 29.5,26.5 Z"/></g>
<g><path style="opacity:1" fill="#eadfcd" d="M 50.5,23.5 C 50.3379,25.5273 50.5045,27.5273 51,29.5C 51.3826,30.056 51.8826,30.3893 52.5,30.5C 52.5,30.8333 52.5,31.1667 52.5,31.5C 52.1667,31.5 51.8333,31.5 51.5,31.5C 50.8333,31.5 50.1667,31.5 49.5,31.5C 49.5,30.5 49.5,29.5 49.5,28.5C 49.2155,26.5853 49.5489,24.9187 50.5,23.5 Z"/></g>
<g><path style="opacity:1" fill="#e4e4e7" d="M 57.5,29.5 C 58.1667,30.5 58.8333,31.5 59.5,32.5C 58.7095,33.4013 57.7095,34.0679 56.5,34.5C 56.4142,33.5041 56.7476,32.6708 57.5,32C 55.8659,31.5065 54.1992,31.3398 52.5,31.5C 52.5,31.1667 52.5,30.8333 52.5,30.5C 52.8333,30.5 53.1667,30.5 53.5,30.5C 54.9587,30.5674 56.2921,30.2341 57.5,29.5 Z"/></g>
<g><path style="opacity:1" fill="#f9fcf7" d="M 65.5,27.5 C 65.8333,27.5 66.1667,27.5 66.5,27.5C 67.1667,27.5 67.8333,27.5 68.5,27.5C 68.5,27.8333 68.5,28.1667 68.5,28.5C 68.5,29.1667 68.1667,29.5 67.5,29.5C 66.8333,30.8333 66.1667,32.1667 65.5,33.5C 65.5,31.5 65.5,29.5 65.5,27.5 Z"/></g>
<g><path style="opacity:1" fill="#5e5e6b" d="M 68.5,28.5 C 69.5,28.5 70.5,28.5 71.5,28.5C 71.7373,29.791 71.404,30.791 70.5,31.5C 68.8212,31.7148 67.8212,31.0481 67.5,29.5C 68.1667,29.5 68.5,29.1667 68.5,28.5 Z"/></g>
<g><path style="opacity:1" fill="#ebeef0" d="M 77.5,30.5 C 79.6208,30.3253 81.6208,30.6586 83.5,31.5C 83.8333,31.5 84.1667,31.5 84.5,31.5C 84.8333,31.5 85.1667,31.5 85.5,31.5C 84.8902,32.391 84.5569,33.391 84.5,34.5C 81.9214,34.6061 79.588,33.9395 77.5,32.5C 77.5,31.8333 77.5,31.1667 77.5,30.5 Z"/></g>
<g><path style="opacity:1" fill="#f4fdfd" d="M 101.5,30.5 C 102.167,30.5 102.833,30.5 103.5,30.5C 103.833,31.8333 104.167,33.1667 104.5,34.5C 103.5,34.5 102.5,34.5 101.5,34.5C 101.5,33.1667 101.5,31.8333 101.5,30.5 Z"/></g>
<g><path style="opacity:1" fill="#517086" d="M 108.5,24.5 C 109.479,27.6248 109.813,30.9581 109.5,34.5C 109.167,34.5 108.833,34.5 108.5,34.5C 108.5,34.1667 108.5,33.8333 108.5,33.5C 108.5,32.8333 108.5,32.1667 108.5,31.5C 107.167,29.8333 107.167,28.1667 108.5,26.5C 108.5,25.8333 108.5,25.1667 108.5,24.5 Z"/></g>
<g><path style="opacity:0.133" fill="#332019" d="M 128.5,27.5 C 129.167,27.5 129.833,27.5 130.5,27.5C 129.736,30.0177 128.736,32.351 127.5,34.5C 127.5,33.5 127.5,32.5 127.5,31.5C 127.5,30.5 127.5,29.5 127.5,28.5C 128.167,28.5 128.5,28.1667 128.5,27.5 Z"/></g>
<g><path style="opacity:1" fill="#c0c9ce" d="M 46.5,31.5 C 46.8333,31.5 47.1667,31.5 47.5,31.5C 48.3957,32.5063 49.0623,32.5063 49.5,31.5C 50.1667,31.5 50.8333,31.5 51.5,31.5C 52.5511,32.2223 53.2178,33.2223 53.5,34.5C 50.509,34.8337 48.1757,33.8337 46.5,31.5 Z"/></g>
<g><path style="opacity:1" fill="#faf9f5" d="M 51.5,31.5 C 51.8333,31.5 52.1667,31.5 52.5,31.5C 54.1992,31.3398 55.8659,31.5065 57.5,32C 56.7476,32.6708 56.4142,33.5041 56.5,34.5C 55.5,34.5 54.5,34.5 53.5,34.5C 53.2178,33.2223 52.5511,32.2223 51.5,31.5 Z"/></g>
<g><path style="opacity:1" fill="#f7f5ec" d="M 57.5,29.5 C 57.5,28.8333 57.8333,28.5 58.5,28.5C 59.5,28.5 60.5,28.5 61.5,28.5C 61.5,29.1667 61.5,29.8333 61.5,30.5C 60.8333,31.1667 60.1667,31.8333 59.5,32.5C 58.8333,31.5 58.1667,30.5 57.5,29.5 Z"/></g>
<g><path style="opacity:0.125" fill="#222130" d="M 61.5,28.5 C 62.1667,29.5 62.8333,30.5 63.5,31.5C 63.8333,32.5 64.5,33.1667 65.5,33.5C 65.5,34.1667 65.8333,34.5 66.5,34.5C 66.5,34.8333 66.5,35.1667 66.5,35.5C 64.7162,35.1075 63.0495,34.4408 61.5,33.5C 61.5,32.5 61.5,31.5 61.5,30.5C 61.5,29.8333 61.5,29.1667 61.5,28.5 Z"/></g>
<g><path style="opacity:1" fill="#f9f3ec" d="M 87.5,27.5 C 89.7288,29.0993 90.0622,31.0993 88.5,33.5C 87.1667,33.8333 85.8333,34.1667 84.5,34.5C 84.5569,33.391 84.8902,32.391 85.5,31.5C 86.552,31.6495 87.552,31.4828 88.5,31C 87.6634,29.9887 87.33,28.8221 87.5,27.5 Z"/></g>
<g><path style="opacity:0.996" fill="#fefbf7" d="M 110.5,20.5 C 110.833,20.5 111.167,20.5 111.5,20.5C 111.322,25.1094 111.655,29.7761 112.5,34.5C 111.833,34.5 111.167,34.5 110.5,34.5C 110.5,29.8333 110.5,25.1667 110.5,20.5 Z"/></g>
<g><path style="opacity:1" fill="#e9e7e5" d="M 67.5,29.5 C 67.8212,31.0481 68.8212,31.7148 70.5,31.5C 71.5511,32.2223 72.2178,33.2223 72.5,34.5C 70.7033,34.0651 68.7033,34.0651 66.5,34.5C 65.8333,34.5 65.5,34.1667 65.5,33.5C 66.1667,32.1667 66.8333,30.8333 67.5,29.5 Z"/></g>
<g><path style="opacity:1" fill="#eaf3f7" d="M 126.5,21.5 C 126.537,27.3773 125.537,33.0439 123.5,38.5C 122.833,37.5 122.167,36.5 121.5,35.5C 120.962,33.8828 120.629,32.2161 120.5,30.5C 120.5,29.8333 120.5,29.1667 120.5,28.5C 121.482,29.1408 122.482,29.8075 123.5,30.5C 124.298,30.0431 124.631,29.3764 124.5,28.5C 124.41,25.8478 125.076,23.5145 126.5,21.5 Z"/></g>
<g><path style="opacity:0.914" fill="#a75c61" d="M 31.5,31.5 C 32.5,31.5 33.5,31.5 34.5,31.5C 33.0552,33.0627 31.3885,34.396 29.5,35.5C 29.5,34.8333 29.5,34.1667 29.5,33.5C 29.8333,32.5 30.5,31.8333 31.5,31.5 Z"/></g>
<g><path style="opacity:1" fill="#fef8e8" d="M 73.5,26.5 C 74.1667,26.8333 74.8333,27.1667 75.5,27.5C 75.5,29.8333 75.5,32.1667 75.5,34.5C 74.8333,34.5 74.1667,34.5 73.5,34.5C 73.5,31.8333 73.5,29.1667 73.5,26.5 Z"/></g>
<g><path style="opacity:0.086" fill="#152230" d="M 91.5,24.5 C 92.1667,27.1667 92.8333,29.8333 93.5,32.5C 93.9731,33.9063 94.9731,34.573 96.5,34.5C 96.5,34.8333 96.5,35.1667 96.5,35.5C 94.302,35.8799 92.6354,35.2132 91.5,33.5C 91.5,30.5 91.5,27.5 91.5,24.5 Z"/></g>
<g><path style="opacity:0.196" fill="#1b1b1d" d="M 99.5,24.5 C 99.1667,25.1667 98.8333,25.8333 98.5,26.5C 98.5,27.5 98.5,28.5 98.5,29.5C 99.7671,31.0389 100.767,32.7056 101.5,34.5C 102.5,34.5 103.5,34.5 104.5,34.5C 104.833,34.5 105.167,34.5 105.5,34.5C 105.833,34.5 106.167,34.5 106.5,34.5C 103.375,35.4794 100.042,35.8128 96.5,35.5C 96.5,35.1667 96.5,34.8333 96.5,34.5C 96.8333,34.5 97.1667,34.5 97.5,34.5C 98.4972,34.5299 99.1639,34.0299 99.5,33C 98.9444,31.9889 98.2778,31.1556 97.5,30.5C 97.0254,27.9179 97.6921,25.9179 99.5,24.5 Z"/></g>
<g><path style="opacity:0.863" fill="#996262" d="M 29.5,33.5 C 29.5,34.1667 29.5,34.8333 29.5,35.5C 28.1667,36.1667 26.8333,36.8333 25.5,37.5C 25.4431,36.391 25.1098,35.391 24.5,34.5C 26.2915,34.634 27.9582,34.3007 29.5,33.5 Z"/></g>
<g><path style="opacity:0.051" fill="#191716" d="M 61.5,30.5 C 61.5,31.5 61.5,32.5 61.5,33.5C 58.9658,35.5923 56.2992,35.9256 53.5,34.5C 54.5,34.5 55.5,34.5 56.5,34.5C 57.7095,34.0679 58.7095,33.4013 59.5,32.5C 60.1667,31.8333 60.8333,31.1667 61.5,30.5 Z"/></g>
<g><path style="opacity:0.103" fill="#1d1c1f" d="M 77.5,32.5 C 79.588,33.9395 81.9214,34.6061 84.5,34.5C 85.8333,34.1667 87.1667,33.8333 88.5,33.5C 89.1667,33.5 89.8333,33.5 90.5,33.5C 90.3893,34.1174 90.056,34.6174 89.5,35C 85.4126,35.7625 81.4126,35.5958 77.5,34.5C 77.5,33.8333 77.5,33.1667 77.5,32.5 Z"/></g>
<g><path style="opacity:0.157" fill="#3f291d" d="M 127.5,31.5 C 127.5,32.5 127.5,33.5 127.5,34.5C 127.446,36.632 126.446,37.9653 124.5,38.5C 125.323,36.0128 126.323,33.6794 127.5,31.5 Z"/></g>
<g><path style="opacity:0.906" fill="#e38580" d="M 17.5,29.5 C 17.8333,29.5 18.1667,29.5 18.5,29.5C 18.8333,29.5 19.1667,29.5 19.5,29.5C 19.5,30.8333 20.1667,31.5 21.5,31.5C 21.8333,32.5 22.5,33.1667 23.5,33.5C 23.5,34.1667 23.1667,34.5 22.5,34.5C 21.5178,33.8592 20.5178,33.1925 19.5,32.5C 18.5344,34.396 18.2011,36.396 18.5,38.5C 19.8333,38.5 21.1667,38.5 22.5,38.5C 22.5,38.8333 22.5,39.1667 22.5,39.5C 20.9582,40.3007 19.2915,40.634 17.5,40.5C 17.5,36.8333 17.5,33.1667 17.5,29.5 Z"/></g>
<g><path style="opacity:0.941" fill="#c66b64" d="M 23.5,33.5 C 23.8333,33.5 24.1667,33.5 24.5,33.5C 24.5,33.8333 24.5,34.1667 24.5,34.5C 25.1098,35.391 25.4431,36.391 25.5,37.5C 24.5,38.1667 23.5,38.8333 22.5,39.5C 22.5,39.1667 22.5,38.8333 22.5,38.5C 22.5,37.1667 22.5,35.8333 22.5,34.5C 23.1667,34.5 23.5,34.1667 23.5,33.5 Z"/></g>
<g><path style="opacity:0.153" fill="#263347" d="M 119.5,30.5 C 119.833,30.5 120.167,30.5 120.5,30.5C 120.629,32.2161 120.962,33.8828 121.5,35.5C 119.468,36.0478 118.468,37.3812 118.5,39.5C 115.716,37.0484 116.049,35.0484 119.5,33.5C 119.5,32.5 119.5,31.5 119.5,30.5 Z"/></g>
<g><path style="opacity:0.996" fill="#c1c3c5" d="M 121.5,35.5 C 122.167,36.5 122.833,37.5 123.5,38.5C 123.5,38.8333 123.5,39.1667 123.5,39.5C 121.95,40.7199 120.284,40.7199 118.5,39.5C 118.468,37.3812 119.468,36.0478 121.5,35.5 Z"/></g>
<g><path style="opacity:0.914" fill="#f77e68" d="M 22.5,34.5 C 22.5,35.8333 22.5,37.1667 22.5,38.5C 21.1667,38.5 19.8333,38.5 18.5,38.5C 18.2011,36.396 18.5344,34.396 19.5,32.5C 20.5178,33.1925 21.5178,33.8592 22.5,34.5 Z"/></g>
</svg>
